# xmcd
#
# Track frame offsets:
#	150
#	4911
#	17039
#	33977
#	51953
#	70311
#	88275
#	105052
#	124730
#	133464
#	157153
#	174774
#	188916
#	202858
#	227961
#
# Disc length: 3311 seconds
#
# Revision: 1
# Processed by: cddbd v1.5.2PL0 Copyright (c) Steve Scherf et al.
# Submitted via: audiograbber 1.83.01
#
DISCID=c90ced0f
DTITLE=Outkast - ATLiens
DYEAR=1996
DGENRE=Rap and Hip-Hop
TTITLE0=You May Die (Intro)
TTITLE1=Two Dope Boyz (In A Cadillac)
TTITLE2=ATLiens
TTITLE3=Wheelz Of Steel
TTITLE4=Jazzy Belle
TTITLE5=Elevators (Me and You)
TTITLE6=Ova Da Wudz
TTITLE7=Babylon
TTITLE8=Wailin'
TTITLE9=Mainstream
TTITLE10=Decatur Psalm
TTITLE11=Millennium
TTITLE12=E.T. (Extraterrestrial)
TTITLE13=13th Floor/Growing Old
TTITLE14=Elevators (Me And You) [DNP 86 Remix]
EXTD=
EXTT0=
EXTT1=
EXTT2=
EXTT3=
EXTT4=
EXTT5=
EXTT6=
EXTT7=
EXTT8=
EXTT9=
EXTT10=
EXTT11=
EXTT12=
EXTT13=
EXTT14=
PLAYORDER=
